<?xml version="1.0" standalone="no"?>
<!DOCTYPE svg PUBLIC "-//W3C//DTD SVG 20010904//EN"
 "http://www.w3.org/TR/2001/REC-SVG-20010904/DTD/svg10.dtd">
<svg version="1.0" xmlns="http://www.w3.org/2000/svg"
 width="415.000000pt" height="151.000000pt" viewBox="0 0 415.000000 151.000000"
 preserveAspectRatio="xMidYMid meet">

<g transform="translate(0.000000,151.000000) scale(0.100000,-0.100000)"
fill="#000000" stroke="none">
<path d="M600 1491 c-297 -63 -519 -287 -581 -586 -24 -114 -24 -176 1 -295
30 -150 92 -263 205 -375 152 -152 312 -219 525 -219 213 0 373 67 525 219
152 152 219 312 219 525 0 213 -67 373 -219 525 -112 113 -225 175 -375 205
-116 24 -189 24 -300 1z m326 -31 c257 -65 460 -267 530 -530 26 -97 24 -263
-4 -363 -70 -249 -249 -430 -502 -508 -97 -30 -279 -33 -379 -5 -264 72 -465
275 -527 531 -22 91 -22 249 0 340 62 258 268 467 527 534 102 27 250 27 355
1z"/>
<path d="M580 1440 c-206 -56 -365 -183 -454 -365 -100 -202 -100 -416 1 -625
39 -81 58 -108 132 -180 145 -144 292 -205 491 -205 200 0 347 62 491 205 72
71 94 101 133 180 85 174 99 358 38 534 -40 116 -83 186 -168 270 -133 134
-279 196 -474 202 -92 3 -130 0 -190 -16z m-240 -461 c0 -119 8 -139 55 -139
47 0 55 20 55 140 l0 101 33 -3 32 -3 0 -100 c0 -114 -14 -159 -56 -180 -39
-21 -98 -19 -136 5 -43 26 -47 44 -45 193 l2 87 30 0 30 0 0 -101z m302 36 l3
-65 44 65 c40 58 48 65 78 65 18 0 33 -3 33 -7 0 -5 -21 -35 -45 -67 -25 -33
-45 -63 -45 -68 0 -5 23 -39 50 -77 28 -38 50 -72 50 -76 0 -3 -17 -5 -37 -3
-33 3 -42 10 -83 68 l-45 65 -3 -68 -3 -68 -32 3 c-28 3 -32 7 -31 31 0 15 1
81 2 147 l2 120 30 0 c29 0 29 0 32 -65z m531 51 c-3 -6 -14 -23 -24 -37 l-19
-26 44 4 c26 3 46 1 50 -6 8 -13 -15 -60 -43 -85 -27 -25 -27 -36 3 -36 28 0
42 -14 51 -53 4 -15 17 -35 30 -45 41 -32 60 -95 33 -105 -10 -3 -10 -8 -2
-17 9 -9 16 -9 33 2 18 11 23 11 31 -2 13 -20 3 -49 -29 -84 l-26 -28 35 7
c27 5 32 4 24 -5 -7 -6 -53 -15 -104 -20 -71 -5 -95 -11 -102 -24 -6 -11 -16
-15 -28 -11 -10 3 -28 0 -39 -7 -11 -7 -23 -9 -27 -5 -11 11 23 42 66 62 57
26 54 32 -22 49 -29 7 -39 26 -14 26 8 0 24 8 37 19 l23 18 -27 25 c-31 29
-34 38 -12 38 8 0 20 -9 27 -20 14 -21 43 -27 53 -10 4 6 -3 29 -15 52 -11 22
-19 47 -16 54 4 11 -3 13 -34 8 -43 -7 -49 0 -24 28 16 16 15 18 0 24 -11 4
-22 -1 -31 -12 -14 -18 -14 -18 -15 4 0 19 -4 21 -25 16 -15 -4 -25 -2 -25 5
0 6 11 13 25 17 26 6 33 20 14 26 -9 3 -9 9 0 26 9 18 8 23 -9 32 -26 14 -26
30 0 30 11 0 23 8 26 18 17 54 20 57 67 58 31 1 44 -3 40 -10z m-163 -23 c-1
-5 -12 -21 -26 -38 -27 -31 -28 -28 -5 18 13 25 31 37 31 20z m30 -233 c12
-23 4 -44 -15 -36 -7 2 -17 0 -23 -6 -6 -6 -18 -8 -28 -4 -15 6 -13 10 12 36
35 35 40 36 54 10z m60 -50 c0 -5 -5 -10 -11 -10 -5 0 -7 5 -4 10 3 6 8 10 11
10 2 0 4 -4 4 -10z m-633 -54 c31 -36 29 -71 -4 -105 l-28 -27 42 -60 c23 -32
42 -62 43 -66 0 -5 -17 -8 -37 -8 -35 0 -40 4 -68 53 -20 34 -38 53 -53 55
-20 3 -22 -1 -22 -52 0 -56 0 -56 -30 -56 l-30 0 0 151 0 152 82 -5 c73 -4 84
-8 105 -32z m208 -60 l60 -94 5 91 5 92 33 3 32 3 0 -150 0 -151 -34 0 c-31 0
-37 6 -97 97 l-64 97 -3 -98 -3 -97 -32 3 -32 3 -3 134 c-1 74 0 141 2 148 3
7 20 13 38 13 31 0 37 -7 93 -94z"/>
<path d="M340 645 c0 -32 3 -35 29 -35 35 0 55 22 46 50 -5 15 -15 20 -41 20
-32 0 -34 -2 -34 -35z"/>
<path d="M3660 1357 c-162 -37 -280 -160 -309 -322 -31 -171 75 -362 237 -426
45 -18 77 -23 152 -24 86 0 101 3 162 32 268 127 307 489 71 669 -85 65 -212
94 -313 71z m68 -70 c-1 -25 2 -42 10 -45 8 -2 12 11 12 47 0 28 3 51 7 51 21
0 75 -58 97 -104 32 -68 32 -75 0 -73 -15 1 -29 -4 -31 -10 -3 -9 7 -13 31
-13 41 0 45 -9 49 -100 l2 -55 -75 0 -75 0 -3 43 c-4 54 -25 51 -26 -4 -1 -39
-1 -39 -43 -42 -24 -2 -43 -7 -43 -12 0 -5 19 -10 43 -12 l42 -3 0 -75 0 -75
-72 -3 -72 -3 -8 41 c-10 52 -29 52 -25 0 l3 -40 -70 0 -71 0 -15 37 c-9 21
-19 57 -22 80 l-6 43 52 0 c28 0 51 5 51 10 0 6 -23 10 -51 10 l-52 0 6 45 c4
24 13 60 21 80 l15 35 72 0 72 0 -7 -40 c-5 -30 -3 -40 8 -40 8 0 16 16 20 40
6 38 8 40 41 40 26 0 35 4 35 16 0 12 -7 15 -25 12 -14 -3 -28 -2 -30 2 -10
16 58 132 88 150 39 24 49 17 45 -33z m-100 16 c-9 -10 -29 -44 -45 -77 l-28
-58 -63 -2 c-34 0 -62 2 -62 7 0 21 89 100 143 127 63 31 81 32 55 3z m268 1
c49 -23 154 -113 154 -132 0 -8 -125 -6 -139 2 -5 4 -12 19 -16 36 -3 16 -20
47 -36 69 -44 61 -42 62 37 25z m188 -206 c8 -24 17 -59 18 -78 l3 -35 -83 -3
c-94 -3 -88 -9 -96 91 l-5 67 74 0 73 0 16 -42z m-175 -180 c-2 -25 1 -43 8
-45 8 -3 13 12 15 39 l3 43 88 3 89 3 -7 -33 c-3 -18 -13 -54 -22 -80 -15 -48
-15 -48 -59 -48 -54 0 -59 -18 -6 -22 l37 -3 -49 -53 c-30 -32 -73 -64 -110
-82 -33 -16 -62 -27 -64 -26 -2 2 8 21 23 41 29 43 31 55 10 55 -8 0 -15 -4
-15 -10 0 -16 -71 -90 -86 -90 -11 0 -14 19 -14 85 l0 85 30 0 c17 0 30 5 30
10 0 6 -13 10 -30 10 l-30 0 0 80 0 80 81 0 81 0 -3 -42z m-334 -181 c7 -21
25 -56 39 -77 31 -47 23 -49 -45 -14 -49 25 -139 106 -139 125 0 6 29 9 66 7
l66 -3 13 -38z m153 -44 c3 -75 1 -83 -16 -83 -33 0 -95 79 -117 148 -7 23 -6
23 62 20 l68 -3 3 -82z"/>
<path d="M3687 1202 c-39 -43 -7 -122 48 -122 33 0 75 42 75 75 0 56 -86 89
-123 47z"/>
<path d="M3500 1020 c-42 -42 -8 -120 53 -120 58 0 91 85 49 123 -25 23 -78
21 -102 -3z"/>
<path d="M3850 840 c-28 -28 -27 -84 2 -104 76 -54 164 46 92 103 -34 26 -68
27 -94 1z"/>
<path d="M1850 962 c0 -203 2 -371 4 -373 2 -2 47 -3 100 -1 l96 3 0 146 0
146 52 -5 c68 -7 81 -24 133 -174 l41 -117 99 2 c55 1 101 3 102 5 3 3 -101
286 -116 313 -6 13 -21 28 -32 34 -19 10 -18 12 20 31 51 25 78 61 91 126 20
89 -14 162 -93 205 -39 21 -57 22 -269 25 l-228 3 0 -369z m350 210 c66 -33
64 -109 -5 -138 -19 -7 -59 -14 -90 -14 l-55 0 0 85 0 85 58 0 c34 0 71 -7 92
-18z"/>
<path d="M2572 959 l3 -371 87 -1 88 -2 2 252 3 253 97 -193 c54 -105 112
-218 130 -251 l33 -58 120 0 120 1 3 370 2 371 -90 0 -90 0 -1 -252 0 -253
-127 253 -127 252 -128 0 -127 0 2 -371z"/>
<path d="M3467 493 c-4 -3 -7 -15 -7 -25 0 -11 -5 -16 -10 -13 -17 11 -40 -15
-40 -45 0 -34 19 -51 48 -43 20 5 22 12 22 69 0 64 -1 69 -13 57z m-7 -83 c0
-32 -26 -43 -36 -15 -9 21 3 45 21 45 10 0 15 -10 15 -30z"/>
<path d="M3691 438 c0 -38 1 -68 3 -68 2 0 11 -3 19 -6 18 -7 47 21 47 46 0
24 -27 51 -45 44 -9 -4 -15 4 -18 23 -2 15 -5 -2 -6 -39z m49 -28 c0 -20 -5
-30 -15 -30 -18 0 -30 24 -21 45 10 28 36 17 36 -15z"/>
<path d="M3810 436 c0 -37 4 -66 10 -66 6 0 10 26 10 59 0 33 -4 63 -10 66 -6
4 -10 -18 -10 -59z"/>
<path d="M2790 441 c0 -32 6 -55 16 -65 18 -19 20 -19 45 -6 15 9 19 22 19 66
0 37 -4 53 -11 49 -6 -4 -10 -23 -9 -44 3 -56 1 -61 -20 -61 -17 0 -20 7 -20
49 0 28 -4 53 -10 56 -6 4 -10 -13 -10 -44z"/>
<path d="M2898 484 c-12 -11 -10 -114 2 -114 6 0 10 10 10 22 0 11 12 36 26
55 14 19 24 37 21 40 -3 2 -14 -8 -24 -23 l-18 -28 -5 28 c-3 15 -8 24 -12 20z"/>
<path d="M3031 428 c1 -35 4 -51 6 -35 6 37 28 34 43 -5 7 -18 14 -28 17 -21
2 7 -1 21 -7 32 -8 15 -8 27 0 42 14 26 -3 49 -36 49 -23 0 -24 -3 -23 -62z
m49 27 c0 -19 -20 -29 -32 -17 -15 15 -2 43 17 36 8 -3 15 -12 15 -19z"/>
<path d="M1847 473 c-12 -11 -7 -206 6 -242 19 -54 57 -76 132 -76 116 0 148
49 143 219 l-3 101 -42 3 -43 3 0 -111 c0 -131 -7 -150 -55 -150 -48 0 -55 19
-55 149 l0 111 -38 0 c-21 0 -42 -3 -45 -7z"/>
<path d="M2180 320 l0 -160 40 0 39 0 3 72 3 71 48 -71 47 -72 56 0 55 0 -61
79 c-33 44 -60 83 -60 88 0 4 25 39 55 77 30 38 55 70 55 72 0 2 -22 4 -49 4
l-50 0 -48 -67 -48 -68 -3 68 -3 67 -39 0 -40 0 0 -160z"/>
<path d="M3887 463 c-8 -15 5 -92 16 -96 8 -3 12 12 11 46 0 45 -15 72 -27 50z"/>
<path d="M3126 445 c-20 -21 -21 -49 0 -69 18 -18 30 -20 39 -6 3 6 -3 10 -14
10 -12 0 -21 7 -21 15 0 8 6 12 13 10 6 -3 19 0 27 5 11 7 12 14 4 27 -15 24
-29 26 -48 8z m34 -15 c0 -5 -7 -10 -15 -10 -8 0 -15 5 -15 10 0 6 7 10 15 10
8 0 15 -4 15 -10z"/>
<path d="M3208 453 c-15 -4 -18 -16 -18 -64 0 -33 4 -59 10 -59 6 0 10 9 10
21 0 11 4 17 10 14 17 -11 40 15 40 44 0 25 -16 53 -29 50 -4 -1 -14 -3 -23
-6z m37 -43 c0 -16 -6 -26 -17 -28 -14 -3 -18 3 -18 28 0 25 4 31 18 28 11 -2
17 -12 17 -28z"/>
<path d="M3298 452 c-14 -3 -18 -13 -17 -45 2 -34 3 -36 6 -12 2 17 12 36 20
42 19 15 15 21 -9 15z"/>
<path d="M3342 448 c-23 -23 -9 -88 19 -88 14 0 39 32 39 50 0 18 -25 50 -39
50 -4 0 -12 -5 -19 -12z m38 -38 c0 -32 -26 -43 -36 -15 -9 21 3 45 21 45 10
0 15 -10 15 -30z"/>
<path d="M3598 449 c-33 -19 -17 -89 19 -89 20 0 15 17 -7 23 -12 3 -20 14
-20 27 0 13 8 24 20 27 11 3 20 9 20 14 0 12 -11 11 -32 -2z"/>
<path d="M3502 413 c-2 -46 4 -55 36 -46 18 4 22 12 21 47 l-2 41 -6 -35 c-9
-51 -38 -53 -44 -3 l-4 38 -1 -42z"/>
<path d="M3650 410 c0 -22 5 -40 10 -40 6 0 10 18 10 40 0 22 -4 40 -10 40 -5
0 -10 -18 -10 -40z"/>
<path d="M3770 410 c0 -22 5 -40 10 -40 6 0 10 18 10 40 0 22 -4 40 -10 40 -5
0 -10 -18 -10 -40z"/>
<path d="M3850 410 c0 -22 5 -40 10 -40 6 0 10 18 10 40 0 22 -4 40 -10 40 -5
0 -10 -18 -10 -40z"/>
<path d="M3945 403 c9 -31 11 -51 5 -57 -6 -6 -10 -14 -10 -20 0 -6 5 -5 12 2
15 15 48 122 38 122 -5 0 -12 -15 -16 -32 l-7 -33 -10 33 c-6 17 -14 32 -18
32 -4 0 -2 -21 6 -47z"/>
<path d="M2920 413 c0 -5 11 -20 25 -33 14 -13 25 -19 25 -13 0 5 -11 20 -25
33 -14 13 -25 19 -25 13z"/>
<path d="M2562 373 c-104 -51 -64 -213 53 -213 119 0 158 171 50 216 -44 18
-62 17 -103 -3z"/>
<path d="M3280 236 c0 -37 4 -66 10 -66 6 0 10 8 10 18 1 16 1 16 14 0 20 -27
31 -21 13 6 -14 21 -14 26 -2 36 8 7 15 17 15 23 0 5 -9 2 -20 -8 -20 -18 -20
-17 -20 13 0 17 -4 34 -10 37 -6 4 -10 -18 -10 -59z"/>
<path d="M2790 230 c0 -33 4 -60 10 -60 6 0 10 19 11 43 l0 42 19 -42 c27 -61
40 -54 38 20 l-1 62 -6 -50 -6 -50 -22 48 c-12 26 -27 47 -32 47 -7 0 -11 -25
-11 -60z"/>
<path d="M2977 267 c-8 -21 8 -100 21 -105 14 -4 16 14 2 23 -14 9 -12 53 2
57 9 3 8 9 -4 21 -12 12 -17 13 -21 4z"/>
<path d="M2906 244 c-9 -8 -16 -24 -16 -34 0 -19 25 -50 40 -50 5 0 12 5 15
10 3 6 -3 10 -14 10 -12 0 -21 7 -21 15 0 9 9 15 25 15 27 0 33 18 13 38 -16
16 -23 15 -42 -4z m39 -14 c3 -5 -3 -10 -14 -10 -12 0 -21 5 -21 10 0 6 6 10
14 10 8 0 18 -4 21 -10z"/>
<path d="M3020 249 c0 -23 21 -79 30 -79 4 0 11 15 17 33 l10 32 7 -32 c12
-54 31 -44 40 22 l5 40 -13 -40 -14 -40 -7 33 c-10 44 -24 50 -31 13 -7 -33
-24 -43 -24 -13 0 9 -5 24 -10 32 -8 13 -10 13 -10 -1z"/>
<path d="M3156 244 c-9 -8 -16 -24 -16 -34 0 -18 25 -50 39 -50 15 0 31 25 31
50 0 25 -16 50 -31 50 -4 0 -15 -7 -23 -16z m39 -34 c0 -16 -6 -26 -17 -28
-14 -3 -18 3 -18 28 0 25 4 31 18 28 11 -2 17 -12 17 -28z"/>
<path d="M3248 252 c-14 -2 -18 -13 -18 -43 0 -21 5 -39 10 -39 6 0 10 15 10
34 0 19 6 36 13 39 17 6 5 14 -15 9z"/>
</g>
</svg>
